<!DOCTYPE svg PUBLIC "-//W3C//DTD SVG 1.1//EN" "http://www.w3.org/Graphics/SVG/1.1/DTD/svg11.dtd">
<!-- Uploaded to: SVG Repo, www.svgrepo.com, Transformed by: SVG Repo Mixer Tools -->
<svg width="800px" height="800px" viewBox="0 0 91 91" id="Layer_1" version="1.1" xml:space="preserve" xmlns="http://www.w3.org/2000/svg" xmlns:xlink="http://www.w3.org/1999/xlink" fill="#5f99af">
<g id="SVGRepo_bgCarrier" stroke-width="0"/>
<g id="SVGRepo_tracerCarrier" stroke-linecap="round" stroke-linejoin="round"/>
<g id="SVGRepo_iconCarrier"> <style type="text/css"> .st0{fill:#3B6A75;} </style> <g> <path class="st0" d="M79.5,63.4c-8.2,8.7-23.5,16.1-32.9,7.1C55.8,68.9,66,64.6,70.6,56c4-7.3,0.6-15.4-6.5-19.4 C48.5,28,31.9,45.1,31.6,60.9c-5-0.9-9.7-2.8-13.7-5.9c-8.3-6.3-8.3-17.1-4.1-25.9c2.3-4.9,5.9-8.6,9.9-11.9 c-1.2,4.7-2.2,9.5-2.5,14.4c-0.4,7.2,10.9,7.2,11.3,0c0.4-8.1,3-15.9,5.5-23.5c1-3.2-1.8-7.2-5.3-7C23,1.9,14.3,1.6,4.8,0.4 C0.4-0.2-1,6.6,2.6,8.5c4.4,2.3,9.3,3.4,14.3,3.8c-1.5,1.1-2.8,2.3-3.7,3.1C6.5,22.2,2.1,31.9,2,41.5C1.8,59.1,17.8,68.8,33.8,70.7 c11.1,22.1,40.2,18.2,54.9,1.9C94.3,66.4,85.2,57.2,79.5,63.4z M46.5,48.7c2.9-2.9,13.8-9.6,16.5-3.2c1.4,3.4-1.4,8.6-4.3,10.3 c-1.5,0.9-3.1,1.6-4.7,2.3c-4,1.8-8.1,2.8-12.4,3.2C41,56.7,43,52.2,46.5,48.7z"/> </g> </g>
</svg>